HIERARCHY
ROOT Pelvis
{
	OFFSET 0.000000 0.000000 0.000000
	CHANNELS 6 Xposition Yposition Zposition Xrotation Yrotation Zrotation
	JOINT LeftUpLeg_virtual
	{
		OFFSET 0.000000 0.000000 0.000000
		CHANNELS 3 Xrotation Yrotation Zrotation
		JOINT LeftUpLeg
		{
			OFFSET 18.735201 -5.666702 -4.541200
			CHANNELS 3 Xrotation Yrotation Zrotation
			JOINT LeftLeg
			{
				OFFSET -0.021200 -31.938179 0.493100
				CHANNELS 3 Xrotation Yrotation Zrotation
				JOINT LeftFoot
				{
					OFFSET 0.021200 -31.938179 -4.336299
					CHANNELS 3 Xrotation Yrotation Zrotation
					JOINT LeftToeBase
					{
						OFFSET 0.943001 -26.722000 15.023500
						CHANNELS 3 Xrotation Yrotation Zrotation
						End Site
						{
							OFFSET 0 0 0
						}
					}
				}
			}
		}
	}
	JOINT RightUpLeg_virtual
	{
		OFFSET 0.000000 0.000000 0.000000
		CHANNELS 3 Xrotation Yrotation Zrotation
		JOINT RightUpLeg
		{
			OFFSET -18.735201 -5.666702 -4.541200
			CHANNELS 3 Xrotation Yrotation Zrotation
			JOINT RightLeg
			{
				OFFSET 0.018946 -31.938133 0.493100
				CHANNELS 3 Xrotation Yrotation Zrotation
				JOINT RightFoot
				{
					OFFSET -0.018946 -31.938126 -4.336299
					CHANNELS 3 Xrotation Yrotation Zrotation
					JOINT RightToeBase
					{
						OFFSET -0.943001 -26.722004 15.023500
						CHANNELS 3 Xrotation Yrotation Zrotation
						End Site
						{
							OFFSET 0 0 0
						}
					}
				}
			}
		}
	}
	JOINT Hips_virtual
	{
		OFFSET 0.000000 0.000000 0.000000
		CHANNELS 3 Xrotation Yrotation Zrotation
		JOINT Hips
		{
			OFFSET -0.000000 -0.000000 -0.000000
			CHANNELS 3 Xrotation Yrotation Zrotation
			JOINT Spine
			{
				OFFSET 0.000000 10.199997 -0.299500
				CHANNELS 3 Xrotation Yrotation Zrotation
				JOINT Spine1
				{
					OFFSET 0.000000 11.900002 -1.516600
					CHANNELS 3 Xrotation Yrotation Zrotation
					JOINT Spine2
					{
						OFFSET 0.000000 13.600006 -2.842500
						CHANNELS 3 Xrotation Yrotation Zrotation
						JOINT Neck_virtual
						{
							OFFSET 0.000000 0.000000 0.000000
							CHANNELS 3 Xrotation Yrotation Zrotation
							JOINT Neck
							{
								OFFSET 0.000000 9.624100 -2.890100
								CHANNELS 3 Xrotation Yrotation Zrotation
								JOINT Head
								{
									OFFSET 0.000000 14.068802 -1.351900
									CHANNELS 3 Xrotation Yrotation Zrotation
									End Site
									{
										OFFSET 0 0 0
									}
								}
							}
						}
						JOINT LeftShoulder_virtual
						{
							OFFSET 0.000000 0.000000 0.000000
							CHANNELS 3 Xrotation Yrotation Zrotation
							JOINT LeftShoulder
							{
								OFFSET 15.263000 10.923401 -0.547700
								CHANNELS 3 Xrotation Yrotation Zrotation
								JOINT LeftArm
								{
									OFFSET 25.438599 -2.830597 -13.032500
									CHANNELS 3 Xrotation Yrotation Zrotation
									JOINT LeftForeArm
									{
										OFFSET 29.960503 0.000000 0.000000
										CHANNELS 3 Xrotation Yrotation Zrotation
										JOINT LeftHand
										{
											OFFSET 27.849251 0.000000 0.000000
											CHANNELS 3 Xrotation Yrotation Zrotation
											End Site
											{
												OFFSET 0 0 0
											}
										}
									}
								}
							}
						}
						JOINT RightShoulder_virtual
						{
							OFFSET 0.000000 0.000000 0.000000
							CHANNELS 3 Xrotation Yrotation Zrotation
							JOINT RightShoulder
							{
								OFFSET -15.263000 10.923401 -0.547700
								CHANNELS 3 Xrotation Yrotation Zrotation
								JOINT RightArm
								{
									OFFSET -25.438599 -2.830597 -13.032500
									CHANNELS 3 Xrotation Yrotation Zrotation
									JOINT RightForeArm
									{
										OFFSET -29.960503 0.000000 0.000000
										CHANNELS 3 Xrotation Yrotation Zrotation
										JOINT RightHand
										{
											OFFSET -27.849251 0.000000 0.000000
											CHANNELS 3 Xrotation Yrotation Zrotation
											End Site
											{
												OFFSET 0 0 0
											}
										}
									}
								}
							}
						}
					}
				}
			}
		}
	}
}
MOTION
Frames: 12
Frame Time: 0.03333333
9.981787 17.055084 179.461533 0.000000 0.000000 0.000000 -47.966458 -15.907741 15.179008 -91.308872 -12.418534 28.230309 92.390248 -8.392399 -0.740609 27.366469 -10.494511 -15.004252 0.000000 0.000000 0.000000 -57.398171 8.401204 -8.840640 -92.318346 10.960300 -18.634131 80.886693 9.555859 -5.310616 12.832915 11.014860 14.722560 0.000000 0.000000 0.000000 -25.829315 -16.464069 -0.064082 -75.320171 18.517020 26.167988 3.914563 -3.333254 -0.840183 0.895681 -1.323132 -0.457634 0.000000 0.000000 0.000000 8.439346 -0.062660 -1.138902 1.827521 0.072916 -0.610628 0.000000 0.000000 0.000000 1.176502 -1.152830 -0.332992 -0.085428 -10.101001 -8.504304 24.599480 4.238065 -48.443182 11.821275 -18.871703 0.780816 0.000000 0.000000 0.000000 3.870065 0.132243 -0.063309 2.569233 4.586104 8.412494 39.715402 11.213846 40.426677 30.373165 49.516682 -15.398786 0.000000 0.000000 0.000000 
10.048083 16.998156 179.425873 0.000000 0.000000 0.000000 -48.200935 -15.847770 15.155527 -91.490596 -12.416860 28.185679 92.470557 -8.320559 -0.695822 27.438916 -10.445872 -14.872267 0.000000 0.000000 0.000000 -57.029313 8.152323 -9.028279 -92.020762 10.911568 -18.744076 80.193606 9.726568 -5.118537 12.126781 10.937616 15.117160 0.000000 0.000000 0.000000 -25.889048 -16.356964 -0.039835 -75.813727 18.332620 26.242591 3.922989 -3.350739 -0.911879 0.915794 -1.342795 -0.498439 0.000000 0.000000 0.000000 8.507282 -0.106092 -1.159989 1.868428 0.068339 -0.629827 0.000000 0.000000 0.000000 1.206717 -1.141264 -0.398550 -0.096052 -9.926070 -8.772693 24.409122 4.266323 -48.064915 11.773766 -18.774616 0.830059 0.000000 0.000000 0.000000 3.818862 0.112274 -0.011929 2.513156 4.586485 8.526742 39.240711 10.828650 40.635142 29.726080 49.313197 -14.914953 0.000000 0.000000 0.000000 
10.116218 16.929043 179.384552 0.000000 0.000000 0.000000 -48.482059 -15.776537 15.122225 -91.706976 -12.413462 28.127983 92.545375 -8.229072 -0.643454 27.511167 -10.379964 -14.709320 0.000000 0.000000 0.000000 -56.611395 7.904807 -9.178379 -91.685044 10.844068 -18.840450 79.429383 9.916668 -4.888268 11.370504 10.847876 15.572854 0.000000 0.000000 0.000000 -25.949272 -16.246211 -0.016921 -76.319461 18.179462 26.317588 3.943525 -3.367510 -0.984119 0.938576 -1.362623 -0.536748 0.000000 0.000000 0.000000 8.565126 -0.151365 -1.182517 1.904836 0.066187 -0.651681 0.000000 0.000000 0.000000 1.253230 -1.124927 -0.464244 -0.093051 -9.703231 -9.058837 24.195207 4.264419 -47.619543 11.725772 -18.726770 0.903122 0.000000 0.000000 0.000000 3.773924 0.093839 0.040343 2.459529 4.601147 8.634934 38.716982 10.395074 40.873973 29.028864 49.101554 -14.406452 0.000000 0.000000 0.000000 
10.187551 16.849796 179.336594 0.000000 0.000000 0.000000 -48.812025 -15.688755 15.075173 -91.959420 -12.405024 28.054030 92.615944 -8.120584 -0.582437 27.585237 -10.300555 -14.516811 0.000000 0.000000 0.000000 -56.147235 7.653008 -9.284127 -91.313550 10.752827 -18.918512 78.592316 10.113609 -4.622020 10.572707 10.736903 16.071353 0.000000 0.000000 0.000000 -26.008368 -16.135415 0.002650 -76.829315 18.062529 26.384411 3.978771 -3.383928 -1.055029 0.965174 -1.382592 -0.571417 0.000000 0.000000 0.000000 8.614416 -0.197960 -1.206726 1.937488 0.066925 -0.676275 0.000000 0.000000 0.000000 1.318057 -1.102721 -0.528951 -0.073870 -9.427838 -9.358592 23.958944 4.226726 -47.104376 11.678713 -18.734024 1.001578 0.000000 0.000000 0.000000 3.737097 0.077402 0.093111 2.409410 4.630988 8.735669 38.142782 9.913286 41.141235 28.285564 48.887601 -13.878646 0.000000 0.000000 0.000000 
10.263328 16.763000 179.282990 0.000000 0.000000 0.000000 -49.190998 -15.579088 15.010925 -92.247845 -12.388099 27.961176 92.684362 -7.997963 -0.512176 27.664383 -10.211562 -14.296996 0.000000 0.000000 0.000000 -55.639766 7.390628 -9.341411 -90.908602 10.633750 -18.974655 77.681271 10.300134 -4.323852 9.743675 10.593464 16.587707 0.000000 0.000000 0.000000 -26.064480 -16.027642 0.017006 -77.333383 17.986303 26.434299 4.031367 -3.400593 -1.122452 0.996778 -1.402785 -0.601160 0.000000 0.000000 0.000000 8.657264 -0.245380 -1.232704 1.967373 0.070934 -0.703553 0.000000 0.000000 0.000000 1.402902 -1.073517 -0.591517 -0.036311 -9.095692 -9.667362 23.699949 4.148940 -46.517458 11.633165 -18.801576 1.126626 0.000000 0.000000 0.000000 3.710267 0.063277 0.146010 2.363876 4.675901 8.827620 37.517126 9.385951 41.433553 27.501507 48.679889 -13.337826 0.000000 0.000000 0.000000 
10.344636 16.671450 179.226685 0.000000 0.000000 0.000000 -49.617178 -15.442803 14.926398 -92.570729 -12.359259 27.847335 92.753293 -7.864274 -0.432508 27.752775 -10.117001 -14.052937 0.000000 0.000000 0.000000 -55.092658 7.112297 -9.348759 -90.473000 10.484262 -19.006451 76.694828 10.454808 -3.999696 8.894491 10.404338 17.091068 0.000000 0.000000 0.000000 -26.115536 -15.925025 0.024810 -77.820006 17.953941 26.459762 4.103468 -3.418128 -1.184263 1.034359 -1.423293 -0.624729 0.000000 0.000000 0.000000 8.696160 -0.293188 -1.260332 1.995627 0.078484 -0.733297 0.000000 0.000000 0.000000 1.509112 -1.036137 -0.650833 0.021450 -8.703007 -9.980387 23.416158 4.028029 -45.857248 11.588826 -18.934039 1.279207 0.000000 0.000000 0.000000 3.695179 0.051610 0.198785 2.323887 4.734728 8.909928 36.839243 8.817578 41.746553 26.682102 48.488220 -12.789902 0.000000 0.000000 0.000000 
10.432380 16.577681 179.172333 0.000000 0.000000 0.000000 -50.087068 -15.276321 14.818949 -92.925400 -12.315380 27.711039 92.825706 -7.722806 -0.343634 27.854835 -10.020926 -13.788375 0.000000 0.000000 0.000000 -54.511207 6.814582 -9.306758 -90.010794 10.303577 -19.012395 75.631955 10.554022 -3.657212 8.036347 10.155989 17.547504 0.000000 0.000000 0.000000 -26.159420 -15.828431 0.025561 -78.276604 17.966720 26.456027 4.196294 -3.436925 -1.238759 1.078429 -1.444082 -0.641141 0.000000 0.000000 0.000000 8.733557 -0.341079 -1.289215 2.023327 0.089675 -0.765085 0.000000 0.000000 0.000000 1.637637 -0.989429 -0.705898 0.100833 -8.246719 -10.292993 23.104004 3.861649 -45.122494 11.544815 -19.136122 1.460196 0.000000 0.000000 0.000000 3.693295 0.042399 0.251323 2.290180 4.805405 8.982365 36.108536 8.213367 42.075133 25.831917 48.321908 -12.239577 0.000000 0.000000 0.000000 
10.527220 16.483574 179.125565 0.000000 0.000000 0.000000 -50.595897 -15.077591 14.686471 -93.308362 -12.253859 27.551544 92.904629 -7.577010 -0.246085 27.974573 -9.927262 -13.507646 0.000000 0.000000 0.000000 -53.902972 6.496146 -9.217179 -89.527866 10.092404 -18.991440 74.493943 10.575470 -3.305489 7.180242 9.837287 17.924430 0.000000 0.000000 0.000000 -26.194240 -15.737347 0.019692 -78.691108 18.023669 26.421887 4.309944 -3.456905 -1.285048 1.128951 -1.464871 -0.649902 0.000000 0.000000 0.000000 8.771419 -0.388933 -1.318644 2.051278 0.104401 -0.798286 0.000000 0.000000 0.000000 1.789058 -0.932422 -0.755878 0.202826 -7.725093 -10.600819 22.759049 3.647115 -44.312109 11.500239 -19.413633 1.670667 0.000000 0.000000 0.000000 3.705781 0.035536 0.303606 2.263297 4.885235 9.045168 35.324929 7.577931 42.413176 24.954516 48.187968 -11.690219 0.000000 0.000000 0.000000 
10.629518 16.390182 179.091949 0.000000 0.000000 0.000000 -51.137988 -14.846524 14.527577 -93.715516 -12.172949 27.368874 92.993005 -7.430336 -0.140701 28.115132 -9.839585 -13.215477 0.000000 0.000000 0.000000 -53.278074 6.157146 -9.082117 -89.032206 9.852397 -18.942582 73.287315 10.502259 -2.954625 6.336908 9.442480 18.195549 0.000000 0.000000 0.000000 -26.218543 -15.650151 0.008431 -79.053340 18.121503 26.359730 4.443675 -3.477383 -1.323315 1.185516 -1.485064 -0.651174 0.000000 0.000000 0.000000 8.810993 -0.436830 -1.347633 2.079914 0.122335 -0.832078 0.000000 0.000000 0.000000 1.963677 -0.864516 -0.800147 0.327956 -7.138500 -10.899980 22.377023 3.380505 -43.425103 11.454931 -19.774156 1.912159 0.000000 0.000000 0.000000 3.733639 0.030876 0.355603 2.243728 4.971288 9.098634 34.489901 6.914563 42.753204 24.053269 48.090051 -11.144599 0.000000 0.000000 0.000000 
10.739242 16.297903 179.076111 0.000000 0.000000 0.000000 -51.706858 -14.585340 14.341755 -94.142280 -12.071996 27.163977 93.093655 -7.285923 -0.028626 28.278599 -9.760768 -12.916671 0.000000 0.000000 0.000000 -52.648481 5.798362 -8.903410 -88.533424 9.585517 -18.864702 72.025431 10.326397 -2.615116 5.516505 8.973386 18.344773 0.000000 0.000000 0.000000 -26.231394 -15.564724 -0.006522 -79.355856 18.254676 26.274631 4.596630 -3.497111 -1.354900 1.247768 -1.503782 -0.645832 0.000000 0.000000 0.000000 8.852947 -0.484989 -1.375048 2.109369 0.142978 -0.865525 0.000000 0.000000 0.000000 2.161686 -0.785624 -0.838346 0.476309 -6.489930 -11.187270 21.955136 3.056387 -42.460704 11.410056 -20.226704 2.186807 0.000000 0.000000 0.000000 3.777952 0.028324 0.407135 2.232160 5.060805 9.142632 33.607775 6.225349 43.085834 23.132720 48.028456 -10.606009 0.000000 0.000000 0.000000 
10.855867 16.206995 179.081039 0.000000 0.000000 0.000000 -52.295210 -14.298680 14.129530 -94.583476 -11.951575 26.938770 93.209228 -7.146272 0.088684 28.466103 -9.692652 -12.615782 0.000000 0.000000 0.000000 -52.026555 5.420552 -8.682431 -88.041617 9.293546 -18.756553 70.727258 10.050440 -2.297091 4.727600 8.439879 18.367770 0.000000 0.000000 0.000000 -26.232286 -15.479171 -0.023403 -79.594073 18.415715 26.172803 4.768728 -3.514498 -1.382169 1.315909 -1.519976 -0.635407 0.000000 0.000000 0.000000 8.897843 -0.533665 -1.399799 2.139730 0.165732 -0.897684 0.000000 0.000000 0.000000 2.383354 -0.696180 -0.870468 0.647594 -5.784919 -11.460528 21.493183 2.668714 -41.418667 11.368321 -20.780082 2.497146 0.000000 0.000000 0.000000 3.840128 0.027899 0.457786 2.229705 5.151553 9.176264 32.686751 5.512064 43.400012 22.199925 48.001166 -10.079257 0.000000 0.000000 0.000000 
10.978293 16.118225 179.107803 0.000000 0.000000 0.000000 -52.894904 -13.993290 13.892544 -95.033278 -11.813505 26.696182 93.341980 -7.012915 0.209433 28.677997 -9.635768 -12.316814 0.000000 0.000000 0.000000 -51.423190 5.024530 -8.419995 -87.565942 8.977980 -18.616925 69.413027 9.686783 -2.009527 3.975463 7.858495 18.270751 0.000000 0.000000 0.000000 -26.221002 -15.392393 -0.040775 -79.766098 18.595900 26.059813 4.961327 -3.527924 -1.408201 1.391086 -1.532606 -0.621922 0.000000 0.000000 0.000000 8.946699 -0.583036 -1.421022 2.171321 0.189981 -0.927715 0.000000 0.000000 0.000000 2.629116 -0.597005 -0.896964 0.841237 -5.030818 -11.719112 20.993966 2.212726 -40.300111 11.333561 -21.440082 2.845544 0.000000 0.000000 0.000000 3.922037 0.029758 0.506903 2.238018 5.242016 9.197876 31.739035 4.777477 43.683790 21.265058 48.005414 -9.570930 0.000000 0.000000 0.000000 
